<svg xmlns="http://www.w3.org/2000/svg" xmlns:xlink="http://www.w3.org/1999/xlink" viewBox="0 0 650 463.41"><defs><linearGradient id="2b639d2c-365e-41bb-92be-dcd4256a880e" x1="336.36" y1="405.62" x2="333.97" y2="348.35" gradientUnits="userSpaceOnUse"><stop offset="0" stop-color="#ffebe3"/><stop offset="1" stop-color="#eddad4"/></linearGradient><linearGradient id="4a872cb3-e68e-4977-b49f-3463403494bb" x1="200.94" y1="237.69" x2="283.61" y2="237.69" gradientUnits="userSpaceOnUse"><stop offset="0" stop-color="#40d5e6"/><stop offset="1" stop-color="#57f"/></linearGradient><linearGradient id="89ee6b91-b901-4b39-b8c6-e1eaf46d3eed" x1="261.59" y1="283.82" x2="336.35" y2="283.82" xlink:href="#4a872cb3-e68e-4977-b49f-3463403494bb"/><linearGradient id="08bf4546-f98e-4a9e-b548-19d7f2278f49" x1="267.98" y1="294.69" x2="324.09" y2="294.69" xlink:href="#4a872cb3-e68e-4977-b49f-3463403494bb"/><linearGradient id="97402ec9-9e33-456a-aa00-983fa0ee405f" x1="247.72" y1="249.53" x2="313.06" y2="249.53" xlink:href="#4a872cb3-e68e-4977-b49f-3463403494bb"/><linearGradient id="fd01c59e-c184-4827-ba4c-8f329c7d1c67" x1="232.72" y1="343.27" x2="293.02" y2="343.27" gradientUnits="userSpaceOnUse"><stop offset="0" stop-color="#ff9340"/><stop offset="1" stop-color="#ffce45"/></linearGradient><linearGradient id="5c9eec65-c709-4156-bd80-c8da6b287496" x1="232.72" y1="343.27" x2="293.02" y2="343.27" gradientUnits="userSpaceOnUse"><stop offset="0" stop-color="#c97332"/><stop offset="1" stop-color="#ffce45"/></linearGradient></defs><title>Asset 1insert</title><g id="c0321afe-f065-4cbd-9ad6-bcc5802f8981" data-name="Layer 2"><g id="0c859051-8907-4ab5-a561-d9951d875aaa" data-name="Layer 1"><path d="M37.45,353.35H616s45.55-3.3,22,31.47S535,475.53,467.6,461.08c-33.13-7.1-159.85-61.22-222.92-48.89-174.16,34.05-176.84-9.07-199-20.26C28,383,12.93,354.06,37.45,353.35Z" style="fill:url(#2b639d2c-365e-41bb-92be-dcd4256a880e)"/><path d="M208.17,128.44c7.12-3.4,14.22,19.29,14.22,19.29,12.12,16,29.05-5.29,27.39,18.64-2.9,41.88,48.21,13.17,24.63,56.89s20.82,24.73,6.17,60,4.33,77.31-17.71,60c0,0-19.41-42.57-39.43-55.74s12-28.79,5.73-46.68c-9.09-26-31-25-15.21-52.88S183.93,140,208.17,128.44Z" style="fill:url(#4a872cb3-e68e-4977-b49f-3463403494bb)"/><path d="M269.85,327.25c-9.55-6.72-20.74-53.55-21.4-81.45-.35-14.28-4.57-20.24-8.3-25.49-3.56-5-6.63-9.35-4.84-19.31,3.42-19-5.58-27.24-5.67-27.32l1-1.19c.4.35,9.78,8.83,6.18,28.79-1.67,9.3,1.09,13.19,4.58,18.12,3.67,5.16,8.23,11.6,8.58,26.36.72,29.94,12.15,74.16,20.74,80.2Z" style="fill:#fff"/><path d="M273.43,330.72a20.07,20.07,0,0,1-4-.44c-3.69-.74-6.1-2.69-7.18-5.78-2.58-7.36,3.39-19.33,8.24-25.1a36.9,36.9,0,0,0,7.32-23.74c-.15-2.3-.38-4.43-.6-6.31-.61-5.43-1.05-9.36,1.29-12,2.06-2.32,6-3.32,13.28-3.35,12.72-.06,17.74-5.33,21.78-9.56a23.44,23.44,0,0,1,5.31-4.57h0c6.34-3.46,13.05-4,16-1.21,1.38,1.32,2.55,3.88.26,8.67a33.28,33.28,0,0,1-7,9.37c-2.93,3-4.87,5-3.86,8.92.23.93.51,1.86.78,2.8,2,6.7,4.18,14.3-7.29,19.46-2.44,1.09-4.66,2-6.61,2.74-8,3.14-12.85,5-18.31,16.56-1,2.23-2,4.34-2.89,6.39C285.58,323.34,282.32,330.72,273.43,330.72Zm46.16-89.44a21.53,21.53,0,0,0-4.92,4.27c-4.25,4.45-9.54,10-22.92,10-6.67,0-10.4.9-12.11,2.82-1.87,2.09-1.46,5.73-.9,10.75.22,1.9.46,4.05.61,6.39a37.79,37.79,0,0,1-7.69,24.86c-4.8,5.71-10.23,17.07-8,23.56.88,2.53,2.9,4.12,6,4.75,10.81,2.19,13.79-4.58,18.73-15.78.91-2.05,1.85-4.18,2.91-6.43,5.73-12.09,11.07-14.18,19.16-17.36,1.94-.76,4.14-1.62,6.54-2.7,10.22-4.59,8.38-10.9,6.43-17.58-.28-.95-.56-1.91-.8-2.85-1.23-4.8,1.19-7.28,4.26-10.41a31.77,31.77,0,0,0,6.7-9c1-2.17,1.89-5.12.07-6.84-2.38-2.26-8.45-1.64-14.11,1.45Z" style="fill:url(#89ee6b91-b901-4b39-b8c6-e1eaf46d3eed)"/><path d="M269.56,339.84l-1.58-.08c.08-1.48,2.07-36.43,16.1-46.66,15.39-11.22,20.25-23.28,22.56-31.38,2.72-9.53,16.59-12.08,17.18-12.19l.27,1.56c-.13,0-13.48,2.48-15.93,11.07-2.38,8.32-7.36,20.71-23.15,32.22C271.58,304.17,269.57,339.49,269.56,339.84Z" style="fill:url(#08bf4546-f98e-4a9e-b548-19d7f2278f49)"/><path d="M301.64,163.71c-10-3.42-7.9,15.81-12.12,30s-46.88,6.2-29,41.82-22.65,11.91-10.53,43,1,64.32,14.22,55.87,7.4-47.6,21.09-52.25,15.93-10.07,2.37-22.71,35.54-25.2,23.42-50.73S313.16,167.66,301.64,163.71Z" style="fill:url(#97402ec9-9e33-456a-aa00-983fa0ee405f)"/><path d="M270.35,332.93c-1.26-5.32-12-52.15-2-57.81,8.81-5,8.59-24.39,7.22-42.71-1.22-16.22,19.61-23.8,20.5-24.11l.53,1.49c-.21.07-20.58,7.49-19.46,22.5,1.41,18.82,1.56,38.79-8,44.21-7.59,4.3-.61,41.93,2.73,56.07Z" style="fill:#fff"/><polygon points="293.02 316.25 278.78 370.28 246.96 370.28 232.72 316.25 293.02 316.25" style="fill:url(#fd01c59e-c184-4827-ba4c-8f329c7d1c67)"/><path d="M293,316.25s-31.35,5.89-31.35,54H247l-14.24-54Z" style="fill:url(#5c9eec65-c709-4156-bd80-c8da6b287496)"/><polygon points="330.96 13.43 398.5 13.74 398.28 62.7 398.23 73.01 387.97 62.65 330.73 62.38 330.96 13.43" style="fill:#78c2ff"/><path d="M359.45,40a5.16,5.16,0,1,0,5.18-5.14A5.17,5.17,0,0,0,359.45,40Z" style="fill:#fff"/><path d="M342.51,40a5.16,5.16,0,1,0,5.18-5.14A5.14,5.14,0,0,0,342.51,40Z" style="fill:#fff"/><path d="M376,40.05a5.16,5.16,0,1,0,5.17-5.14A5.16,5.16,0,0,0,376,40.05Z" style="fill:#fff"/><polygon points="649.68 0 553.64 0.44 553.96 70.06 554.03 84.72 568.62 69.99 650 69.61 649.68 0" style="fill:#ffca55"/><path d="M609.16,37.79a7.34,7.34,0,1,1-7.35-7.31A7.32,7.32,0,0,1,609.16,37.79Z" style="fill:#fff"/><path d="M633.26,37.71a7.34,7.34,0,1,1-7.37-7.31A7.34,7.34,0,0,1,633.26,37.71Z" style="fill:#fff"/><path d="M585.63,37.86a7.34,7.34,0,1,1-7.36-7.31A7.34,7.34,0,0,1,585.63,37.86Z" style="fill:#fff"/><polygon points="0.34 52.4 101.75 52.87 101.41 126.38 101.34 141.86 85.93 126.31 0 125.91 0.34 52.4" style="fill:#78c2ff"/><path d="M43.12,92.31a7.75,7.75,0,1,0,7.77-7.73A7.76,7.76,0,0,0,43.12,92.31Z" style="fill:#fff"/><path d="M17.68,92.22a7.75,7.75,0,1,0,7.77-7.72A7.75,7.75,0,0,0,17.68,92.22Z" style="fill:#fff"/><path d="M68,92.38a7.75,7.75,0,1,0,7.77-7.72A7.75,7.75,0,0,0,68,92.38Z" style="fill:#fff"/><path d="M363.58,153.63a10.78,10.78,0,1,0-20.22-7.46,6.62,6.62,0,0,0-.44,1.52,9.87,9.87,0,0,0-.16,1.07c-.43,3.3-.47,10.23,2.52,23.35,10.79-8,15.25-13.33,17.08-16.12a9.39,9.39,0,0,0,.56-.92A6.34,6.34,0,0,0,363.58,153.63Zm-12.43,2.57a6.71,6.71,0,1,1,8.62-4A6.72,6.72,0,0,1,351.15,156.2Z" style="fill:#ffca55"/><rect x="292.46" y="90.71" width="33.06" height="22.64" transform="translate(26.66 -59.76) rotate(11.54)" style="fill:#ffc655"/><polygon points="290.53 109.81 309.26 100.72 322.93 116.43 290.53 109.81" style="fill:#ffbc55"/><polygon points="327.45 94.25 308.44 104.76 295.06 87.63 327.45 94.25" style="fill:#ffa655"/><path d="M198,99.4a7.43,7.43,0,0,1-4.66,0,5.59,5.59,0,0,1-3.52-3.18,34.09,34.09,0,0,0-5.19-7.31,15,15,0,1,1,16.86-6.33,32.5,32.5,0,0,0,1.29,8.44c1.22,3.07-.68,6.73-4.25,8.16A4.76,4.76,0,0,1,198,99.4Zm-13.4-38a13.79,13.79,0,0,0,.53,26.41l.17,0,.12.13A35.39,35.39,0,0,1,191,95.73l0,0a4.38,4.38,0,0,0,2.78,2.49,6.3,6.3,0,0,0,4.35-.19c2.94-1.18,4.54-4.14,3.55-6.59v0a33.81,33.81,0,0,1-1.36-9v-.2l.11-.16a13.8,13.8,0,0,0-15.76-20.71Z" style="fill:#ffd255"/><polygon points="193.52 95.72 185.5 81.31 189.73 82.63 190.8 79.65 193.33 81 195.25 77.29 199.67 93.2 198.48 93.53 194.91 80.63 193.84 82.67 191.47 81.41 190.49 84.16 188.07 83.4 194.59 95.12 193.52 95.72" style="fill:#ffd255"/><rect x="193.48" y="97.67" width="10.66" height="4.29" transform="translate(-22.87 81.24) rotate(-21.87)" style="fill:#ffd255"/><rect x="190.62" y="93.5" width="14.08" height="6.91" transform="translate(-21.89 80.6) rotate(-21.87)" style="fill:#ffd255"/><path d="M526.3,77.29s9.27-1,12.61,8,6.49,11.89,6.88,16.59c1.59,19,10.47,14.72,8,25.68s-4.23,12.63-4.23,12.63L528.3,136l-21.51.07s8.41-4.2,6.54-13.15-6.54-23.63-3.91-33.62S520.76,78.06,526.3,77.29Z" style="fill:#464240"/><path d="M520.44,371.2s-6.66,9.15-5.72,10.62,8.22,1.69,12.64,0,4.52-12.58,6.52-17.26c.84-2-1-7.75-3.47-8.17a11.3,11.3,0,0,0-5.47.9S527.52,364,520.44,371.2Z" style="fill:#eb4747"/><path d="M524.94,357.29a62.9,62.9,0,0,1-1.37,7.37c-.84,3.06-5.37,10-5.16,10.85s5.9,1.6,8.21-.57,4.1-8.46,4.32-12.26a20.19,20.19,0,0,0-.53-6.29S527.15,355,524.94,357.29Z" style="fill:#eea886"/><polygon points="533.88 364.56 533.88 374.29 532.62 374.29 532.62 366.77 533.88 364.56" style="fill:#eb4747"/><path d="M537.86,371.2s-6.66,9.15-5.71,10.62,8.21,1.69,12.63,0,4.53-12.58,6.53-17.26c.83-2-1-7.75-3.48-8.17a11.33,11.33,0,0,0-5.47.9S544.94,364,537.86,371.2Z" style="fill:#eb4747"/><path d="M542.36,357.29a62.9,62.9,0,0,1-1.37,7.37c-.84,3.06-5.37,10-5.16,10.85s5.9,1.6,8.21-.57,4.11-8.46,4.32-12.26a20.19,20.19,0,0,0-.53-6.29S544.57,355,542.36,357.29Z" style="fill:#eea886"/><polygon points="551.31 364.56 551.31 374.29 550.04 374.29 550.04 366.77 551.31 364.56" style="fill:#eb4747"/><path d="M508.2,205.73s-5,27.75-6.4,34.69-5.17,40.57-5.58,46.29,12.42,33.21,13.22,35.11c13.42,31.75,15,38.94,15,38.94s4.41,2.76,6.44-.54c.62-1-8.26-37.41-9.72-47.51-1.36-9.4-4.9-23.9-4-27.2s9.67-48.73,11.3-50.64,4.09,1.09,5,5.31,3,40.7,4.22,45.33.27,20.28,1,28.18,3.52,44.74,3.52,44.74,5.48,1,6,.11,5.3-40.93,5.43-50.32.28-22.35.55-26.41c2.52-38.93,7.28-44-1-72C532.79,141.24,508.2,205.73,508.2,205.73Z" style="fill:#eea886"/><path d="M508.2,205.73s-5,27.75-6.4,34.69-5.17,40.57-5.58,46.29,12,33.21,12.25,35.25,10.47,31.27,10.47,31.27,10.31-.18,13.12-2.85c.56-.53-9.47-27.57-10.93-37.67-1.36-9.4-4.9-23.9-4-27.2s9.67-48.73,11.3-50.64,4.09,1.09,5,5.31,3,40.7,4.22,45.33.27,20.28,1,28.18-.75,35.94-.75,35.94,13.49.71,14-.17,1.55-31.85,1.68-41.24.28-22.35.55-26.41c2.52-38.93,7.28-44-1-72C532.79,141.24,508.2,205.73,508.2,205.73Z" style="fill:#faa146"/><path d="M555.19,215.07c.78-.32-5.52-21.15-6.77-27.38-1.12-5.62-5-10.77-1.21-20.34a35.71,35.71,0,0,0,2-11.95s5.74,12.65,6.28,15.92-19.83-2.68-20.11-2.22c-.54.86-1.13,6.37-1.13,8.28,0,1.57,29.57,8.56,33.07,2.37,1-1.76-5.43-35.37-9.57-39.85-6.81-7.35-24.69-13.61-24.69-13.61s-4.9-2.63-13.52.09-20.69,11.07-22.78,13.25-10.43,35-11.16,39.25c-.69,4-.42,12.41,8.71,11.33L519,184.57l-1.53-7.51L499,178.52c-3.77.65-2-2.66-1.48-4.5s5.11-18.51,5.11-18.51c-.27,4.63,3.22,19.82,5,25.09s-2.19,33.43-2.47,36.51C505.14,217.11,520,229.29,555.19,215.07Z" style="fill:#eb4747"/><path d="M537.09,127.83s-6.08,12.54-11.16,16.22c0,0-9.14-13.69-8.67-16.85C517.26,127.2,527.38,122.71,537.09,127.83Z" style="fill:#eea886"/><path d="M537.31,170.12s-2.82-1.13-3.57-2.16-3.24-1.63-5.09-1.08-.82,8.49-.82,8.49l9.74,1.26Z" style="fill:#eea886"/><path d="M519.66,176.18s.94-5.13.71-6.07,1.67-1.9,1.93.44.4,3.83.4,3.83Z" style="fill:#eea886"/><path d="M523.71,179.75l7.1-.29a1.71,1.71,0,0,0,1.64-1.69l.19-15.54a1.71,1.71,0,0,0-1.76-1.73l-8.5.28a1.7,1.7,0,0,0-1.65,1.84l1.21,15.55A1.71,1.71,0,0,0,523.71,179.75Z" style="fill:#51578c"/><path d="M519.5,176.6s-.13-1.46,2.67-2.79c3.71-1.77,8.67-3.57,9.52-3.11,1.22.67.59,1.6-1.76,2.37s-3.12,1-3.12,1,4.59-.43,5.62.12,1.09,1.81.34,2a19.27,19.27,0,0,1-2.53.34s2,.07,2.14.85c.15.58.22,1.41-1.63,1.76,0,0,1.25,1.38-.62,2.27a32.53,32.53,0,0,1-7,2c-3.55.59-11.56.15-11.56.15l3.29-5.56a9.4,9.4,0,0,0,3.09-.29C519.67,177.15,519.5,176.6,519.5,176.6Z" style="fill:#eea886"/><polygon points="517.42 177.06 518.95 184.57 503.25 188.17 502.64 178.23 517.42 177.06" style="fill:#eb4747"/><path d="M535.38,169.1s-1.29,2.77-1.13,8.28c0,0,9.73,3.55,17.3,4.38v-9.55Z" style="fill:#eb4747"/><path d="M519,184.57l-11,6.12c.08-1.28.13-2.5.16-3.63Z" style="fill:#b33636"/><path d="M547.88,185.39c-8.83-3.51-12.36-6.68-13.34-7.68l-.29-.33L546.79,181h0C547.1,182.55,547.51,184,547.88,185.39Z" style="fill:#b33636"/><path d="M527.52,82.53S539.8,84.3,538,102.42s-12.63,16.69-13.35,16.67-10.87.38-11.75-21.73C512.9,97.36,512.49,81,527.52,82.53Z" style="fill:#eea886"/><path d="M533,115.88s-.76,9.43,1,12.25-1.55,6.66-8.49,5.35-6.54-5.25-6.54-5.25,2-5.82,1.38-10.47S533,115.88,533,115.88Z" style="fill:#eea886"/><path d="M526.12,89.1s5.74,6,8.4,9.08,3,8.95,3,8.95,4.49-5.48,2.61-11.86-6.32-18.81-17.56-15-11.66,20.62-10.34,28.94C512.2,109.21,517.25,90.83,526.12,89.1Z" style="fill:#464240"/><path d="M521.28,118.27a10.73,10.73,0,0,0,10.32-1.18,6.64,6.64,0,0,1-5.16,3.34A5.09,5.09,0,0,1,521.28,118.27Z" style="fill:#a77860"/><path d="M519.5,121.56s-16.89,15-12.51,24.4c3.74,8,17,3.1,14.82-5.29S519.5,121.56,519.5,121.56Z" style="fill:#464240"/><path d="M524.1,163.77a1.06,1.06,0,1,1-2.11,0,1.06,1.06,0,0,1,2.11,0Z" style="fill:#48484d"/><polygon points="194.65 373.77 182.32 291.8 184.69 291.44 197.02 373.4 194.65 373.77" style="fill:#5c5049"/><polygon points="179.59 373.77 167.27 291.8 169.65 291.44 181.97 373.4 179.59 373.77" style="fill:#5c5049"/><polygon points="105.47 373.77 103.09 373.4 115.42 291.44 117.79 291.8 105.47 373.77" style="fill:#5c5049"/><path d="M186.18,292.64l9.65-101.58s-16.88-2.2-27.09-1.66L153.41,292.64Z" style="fill:#fab46c"/><rect x="153.41" y="287.47" width="32.77" height="5.16" style="fill:#fab46c"/><path d="M132,288.5l-5.12-96.8s42.73-4.64,69-.64Z" style="fill:#fab46c"/><path d="M166.1,160.36s6.6-19.35-6-25.35-23.28,2.68-25.3,7.37-1.49,13.22.24,19.17,1.47,15-2.27,18-8.39,8.06-8.16,18.3c.15,6.36,25-16.25,25-16.25Z" style="fill:#fccca2"/><path d="M149.29,368.6s-.39,13.67,1.57,14.49,9.34-3.93,12.6-8.63-4.09-15.65-5.29-21.69c-.51-2.53-6.25-7.08-9-5.77s-4.84,4.64-4.84,4.64S151.4,356.52,149.29,368.6Z" style="fill:#d4c3bd"/><path d="M144.28,351.64a76.58,76.58,0,0,1,3.67,8.29c1.24,3.62,1.48,13.65,2.26,14.34s7-2.42,7.81-6.17-1.69-11.25-4.08-15.19a24.44,24.44,0,0,0-4.82-5.91S144.9,347.82,144.28,351.64Z" style="fill:#de9673"/><polygon points="158.17 352.77 164.82 362.49 163.56 363.35 158.42 355.84 158.17 352.77" style="fill:#d4c3bd"/><path d="M134.21,245.38s3.26,5.49,0,9.49-25.13,15-25,21.34,4.16,16.29,5.6,18.81,6.76,13,9.52,19.1,18.72,35.41,21.85,42,1.2-26.4,1.2-26.4l-16-46.82,37.3-36.33S164.23,236.53,134.21,245.38Z" style="fill:#de9673"/><path d="M148.4,183.38s-10.35,2.3-14.46,4.7-13.23,13.44-13.23,18.19,39.9,9.18,39.9,9.18l7.56,27.61s20.17-4.92,22.57-9-7.94-33.13-9.38-39.25-9-10.25-17.39-11.43A58.06,58.06,0,0,0,148.4,183.38Z" style="fill:#2f4563"/><path d="M172.86,246.28s-.72,4.72,1.2,6.72,10.77,13.67,6.09,25.13c-4.31,10.53-12.65,10.33-12.65,10.33H154.59s3.75,18.94,2.54,31.42-6.91,41-7,42.43-5.45,5.95-7,3.67c0,0-.14-17.17-1-23.65s-4.42-32.41-5.5-36.25-7.44-15.49-7.44-16.69-6.21-20,7.35-24.79S154.87,246.38,172.86,246.28Z" style="fill:#eea886"/><path d="M136.66,379.22s-8.91,10.38-7.91,12.25,9.74,2.82,15.23,1.21,6.67-14.74,9.53-20.19c1.2-2.28-.41-9.43-3.41-10.18s-6.68.57-6.68.57S145.89,371.15,136.66,379.22Z" style="fill:#e6d3cc"/><path d="M143.42,362.88a75.37,75.37,0,0,1-2.36,8.75c-1.31,3.6-7.43,11.54-7.26,12.58s7,2.5,10,.1,5.76-9.8,6.38-14.37a24.65,24.65,0,0,0,0-7.63S146.3,360.3,143.42,362.88Z" style="fill:#eea886"/><polygon points="153.51 372.49 152.57 384.23 151.05 384.11 151.77 375.04 153.51 372.49" style="fill:#e6d3cc"/><path d="M180.15,278.13c-4.07,10.67-12.65,10.33-12.65,10.33H154.59s-5.38-8.54-18.57-10a38.8,38.8,0,0,0-10,.23l-.13,0c-17.52,2.6-14.14,9-14.09,9.2-1.45-3.56-3-9.21-2.61-12.26,1.68-13.87,21.72-16.78,25-20.78s0-9.49,0-9.49c30-8.85,34.53,1.2,34.53,1.2,1.32-.19,4.69-2.13,6.13-2.14,0,0,1.5,3.28,2.55,6.25C178.36,253.3,184.55,266.56,180.15,278.13Z" style="fill:#2f4563"/><polygon points="167.69 201.77 172.13 243.06 113.68 243.06 109.23 201.77 167.69 201.77" style="fill:#ded1c5"/><rect x="167.02" y="239.35" width="9.76" height="3.72" style="fill:#ded1c5"/><rect x="73.39" y="243.06" width="161.01" height="5.62" style="fill:#bc8551"/><path d="M154.87,138.31s13.1,3.88,11.23,22.05-10.43,17.24-11.23,17.38-11,.8-14.17-21.25S154.87,138.31,154.87,138.31Z" style="fill:#eea886"/><path d="M161.11,174.39s-.69,6,.47,9.76-15.26,3.85-15.25.77c0-3.5,1.68-6.42.11-12.41S161.11,174.39,161.11,174.39Z" style="fill:#eea886"/><path d="M151.49,146.42s7.12,11.32,14.61,13.94c0,0,4.09-19-12.81-23s-14.24,19.18-13,25.36A50.18,50.18,0,0,1,151.49,146.42Z" style="fill:#fccca2"/><path d="M148.38,175.16a8.86,8.86,0,0,0,11.81.56s-.55,3.45-5.31,3.9S148.38,175.16,148.38,175.16Z" style="fill:#a77860"/><path d="M142,144.71s3.74-7.25,10.07-7.58,10.08,5.17,10.08,5.17A10.76,10.76,0,0,0,152,136.12C144.41,136.12,142,144.71,142,144.71Z" style="fill:#23344a"/><path d="M163.25,183.29s-.23,12.58-10.21,13-7.9-12.06-7.9-12.06S152.44,181.22,163.25,183.29Z" style="fill:#eea886"/><rect x="230.27" y="248.68" width="4.14" height="129.11" style="fill:#807066"/><rect x="73.39" y="248.68" width="4.13" height="129.11" style="fill:#807066"/><path d="M434.31,133.33s12.81,3.76,12,21.18S434.31,133.33,434.31,133.33Z" style="fill:#eea886"/><path d="M433.13,133.33s1,1.34-.25,10,1.11,12.29,1.39,15.89,4.5,26.9,4.62,27.92.68,13.43,2.33,16.72S455,225.8,455.16,226.73s5.88-3.25,5.88-3.25-10.88-22.65-11.59-24.88c-.87-2.77-3.55-9.64-3.72-13.23-.4-8.79.4-29.19.09-33.64C445.24,143.41,438.68,134.65,433.13,133.33Z" style="fill:#eea886"/><path d="M449.45,207.68s1.91,4.19,3,4.45,2.47,1.66,3.43,2.09,4,.66,4.83,1.45c.33.33,1.61,3.13,2.36,3.71s2.41,1.59,1.89,2.22-2.23.14-2.23.14a1.22,1.22,0,0,1,.37,1.27c-.54,1.35-1.45,1.42-1.45,1.42s.29,1-.08,1.52a2.43,2.43,0,0,1-1.69,1.14,2.28,2.28,0,0,1-.78,1.4,2.09,2.09,0,0,1-2,.34s-.9,1.24-1.73,1a7.06,7.06,0,0,1-1.91-1.23,28.39,28.39,0,0,1-6.3-9.62,34.56,34.56,0,0,0-4.2-8.12Z" style="fill:#eea987"/><rect x="431.72" y="176.85" width="36.09" height="60.23" transform="translate(327.21 -272.72) rotate(50.96)" style="fill:#214361"/><path d="M462.53,221.18s-3.62-4-5.43-4-.57,1.6-.57,1.6-1.2-1.53-2.48-.71.25,2.52.25,2.52a1.5,1.5,0,0,0-2.16.35c-.95,1.27.63,2.41.63,2.41s-2.39-.36-1.88,1.6c.87,3.29,4.43,4.91,4.43,4.91s1,.27,1.83-1a2.09,2.09,0,0,0,2.85-1.73s2.61-.61,1.78-2.69A1.88,1.88,0,0,0,462.53,221.18Z" style="fill:#db9c7c"/><path d="M422.6,82.46s-18.53-1.54-18,17.94,3.59,22.42,0,36.19,18.06-7.82,18.06-7.82Z" style="fill:#fccca2"/><path d="M402.41,202.88s-6.82,8.69-9.23,14.45-6.42,18.35-5.88,28.12,3.74,28.09,2.8,32.23-1.87,12.71-2.87,15.65-5,11.51-5.42,20.33,5.62,47.62,5.35,51.23,6.83,1.48,6.83,1.48,2.4-35.05,3.74-41.07,2.94-26.48,4.15-27.95,4.49-16.72,4-19.13S419,239.7,419.8,232.47s20.92-29.59,20.92-29.59A62.55,62.55,0,0,0,402.41,202.88Z" style="fill:#eea987"/><path d="M435,202.88a39.36,39.36,0,0,0,.75,5c.4,1.34,9.63,35.45,10.57,48.56a257,257,0,0,0,3.74,27c.4,2.8-.4,12.17-1.2,14.58s4,59.25,4.41,60.59-3.21,1.74-5.75,1.34-15.38-41.74-14.58-48.69,1.6-21.79-.67-27.82-22.74-49.63-22.87-52.3S400.51,182.38,435,202.88Z" style="fill:#eea987"/><path d="M393.86,362.1s.66,4.62,1.38,5.88,2.69,7.68,3.6,8.88,2.88,10.19,0,11.27-9.66,2.88-11.94-.72a14.8,14.8,0,0,1-2.22-10c.36-2.75,3.1-15.42,3.06-16.67S393.86,362.1,393.86,362.1Z" style="fill:#eea987"/><path d="M397.69,374.36s.31,7-5,7S385.1,375,385.1,375s-1.8,3.12,0,9.78,9.3,5.28,11,5S405.72,387.46,397.69,374.36Z" style="fill:#fff"/><path d="M452.67,355.82s3.73,6.68,5.95,8c2.76,1.69,8.11,7.09,10,7.34s8.6,1.44,7.3,5.24c-1.07,3.11-17.11,2.67-18.93,1.11s-7.22-7.16-9.4-7-1.37,8.08-1.37,8.08h-2.37s-.83-7.74-.93-9.07c-.3-3.93,2.51-6.83,2.63-9.08s.26-3.92.26-3.92Z" style="fill:#fff"/><path d="M468.07,371s-5.29,1.82-9.36-.52-11.88-5.89-14.65-5.91c0,0,1.51-4.61,1.54-5.13s.2-2.94.2-2.94l6.83-1.09s4.43,6.5,6.38,8A108.89,108.89,0,0,1,468.07,371Z" style="fill:#eea987"/><path d="M440.84,202.28s1.9,7.92,2.6,10.23,5.21,38.1,6.32,60.49c0,0-27,10.23-64.1,8.53,0,0-.91-41.13,2.5-52.77s9.59-22.52,14.25-25.88C406.56,199.89,440.84,202.28,440.84,202.28Z" style="fill:#5779d4"/><path d="M445.47,155.42c-.3,4.71-2.23,7.73-2.63,9.44s0,5.61-.5,9.53-2,22.57-1.5,27.89-36.5,2.91-39.31,1.31c0,0,6.23-11.14,6.4-15.76.06-1.59,1-6.52-1.61-10.13-1.37-1.91-3.93-8-6.48-12.41h0c-1-1.72-2-3.44-2.74-4.72h0a17.93,17.93,0,0,1-1.47-3.64s-1.64-20.46,2.87-22.77a23,23,0,0,1,11.34-2.91,32.14,32.14,0,0,0,7.32-1.1l10.33,1.1a23,23,0,0,0,6.26,1.91c2.6.2,5.79,5.86,7.37,10C442.42,146.51,445.77,150.7,445.47,155.42Z" style="fill:#e8e8e8"/><path d="M404.11,132s-8.18.68-11.26,8.2-2.81,15.15-3.48,17.92S387.73,177,387,179.38a134,134,0,0,0-3.65,22.3c-.53,8.91.79,27.69.79,27.69l4.53-2.2s4-27.86,5.79-33.75c1.49-5,1.49-13.6,2.33-16.69s6-21.71,6.8-23.59C404.89,150.25,411.13,131.93,404.11,132Z" style="fill:#eea886"/><path d="M420.79,84.43c4.59-.75,15.09.4,18.07,12.46a37.72,37.72,0,0,1-.5,6c-.5,2.68,2.69,10.06,2.13,10.51a17.19,17.19,0,0,1-3,1.21s-1.74,8.66-4.68,8.92-14.29-.76-20.71-10.54S402.24,87.46,420.79,84.43Z" style="fill:#eea886"/><path d="M428.41,120.2s-.23,1.21-.44,3c-.11.91-.21,2-.28,3.09-.18,3.11-.09,6.71,1,9,0,0-5.76,3.5-11.92-5.07,0,0,.6-10.64-2.94-16.29S428.41,120.2,428.41,120.2Z" style="fill:#eea886"/><path d="M438.86,96.89s-6.91,6-14.23,7.85-11.2,10.1-11.2,10.1-12.95-12.92-5.13-25.45S438.85,82.44,438.86,96.89Z" style="fill:#fccca2"/><path d="M428,123.19c-.11.91-.21,2-.28,3.09a32.36,32.36,0,0,1-10-7.42C421.47,121.58,428,123.19,428,123.19Z" style="fill:#a77860"/><path d="M423.28,105.16s-7.49,20.14-6.59,25c0,0-4-.69-11,1.47C405.67,131.62,409.08,95.7,423.28,105.16Z" style="fill:#fccca2"/><path d="M414.19,130.8s2.47,15.1,11.6,13.39,2.2-12.77,2.2-12.77S423.94,128,414.19,130.8Z" style="fill:#eea886"/><path d="M388.81,226.41a39.51,39.51,0,0,0,1.85,4.79c.55,1.18,1.37,9.09,1.4,10.12,0,.86-.58.4-.91-.15-.2-.31-.92-3-1.54-4.43-.52-1.19-.92-1.62-1.1-1.21a26.64,26.64,0,0,0,.43,7.68c.63,2.14.52,7.19-.68,6.55s-4.56-9.51-4.59-12.94a67.88,67.88,0,0,1,.49-7.58Z" style="fill:#eea886"/></g></g></svg>